<?xml version="1.0" standalone="no"?>
<!DOCTYPE svg PUBLIC "-//W3C//DTD SVG 20010904//EN"
 "http://www.w3.org/TR/2001/REC-SVG-20010904/DTD/svg10.dtd">
<svg version="1.0" xmlns="http://www.w3.org/2000/svg"
 width="605.000000pt" height="605.000000pt" viewBox="0 0 605.000000 605.000000"
 preserveAspectRatio="xMidYMid meet">
<g transform="translate(0.000000,605.000000) scale(0.100000,-0.100000)"
fill="#000000" stroke="none">
<path d="M5091 5940 c-51 -33 -95 -60 -96 -60 -6 0 -139 -84 -145 -90 -3 -4
-12 -10 -20 -13 -8 -4 -33 -18 -55 -32 -22 -14 -56 -34 -75 -45 -19 -11 -64
-38 -99 -60 -34 -22 -65 -40 -68 -40 -2 0 -19 -11 -37 -25 -18 -14 -38 -25
-44 -25 -7 0 -12 -4 -12 -10 0 -5 -4 -10 -9 -10 -6 0 -116 -65 -246 -145 -130
-80 -238 -145 -240 -145 -2 0 -30 -17 -62 -37 -95 -61 -97 -63 -113 -70 -8 -4
-17 -9 -20 -13 -4 -4 -80 -51 -222 -135 -9 -5 -48 -29 -85 -53 -37 -23 -75
-47 -83 -52 -127 -79 -213 -130 -221 -130 -5 0 -9 -4 -9 -10 0 -5 -5 -10 -11
-10 -6 0 -29 -12 -52 -27 -23 -16 -51 -33 -62 -40 -11 -6 -56 -33 -99 -60 -43
-26 -91 -55 -105 -63 -14 -9 -53 -33 -86 -54 -33 -21 -76 -47 -95 -58 -19 -10
-70 -41 -113 -69 -43 -27 -83 -49 -88 -49 -5 0 -9 -3 -9 -8 0 -4 -14 -13 -30
-20 -17 -8 -36 -19 -43 -26 -7 -7 -24 -19 -39 -27 -63 -33 -143 -83 -146 -91
-2 -4 -8 -8 -12 -8 -5 0 -53 -27 -107 -61 -122 -75 -115 -71 -193 -118 -36
-22 -123 -75 -193 -118 -70 -43 -140 -84 -155 -92 -15 -8 -29 -17 -32 -20 -3
-4 -39 -27 -80 -51 -41 -25 -112 -68 -157 -97 -46 -29 -85 -53 -88 -53 -2 0
-54 -31 -116 -70 -61 -38 -115 -70 -119 -70 -5 0 -15 -6 -22 -13 -7 -7 -32
-24 -55 -38 -55 -31 -204 -123 -360 -220 l-122 -77 42 -28 c23 -16 44 -32 45
-36 2 -5 8 -8 13 -8 5 0 97 -54 205 -120 108 -66 200 -120 205 -120 5 0 9 -4
9 -10 0 -5 4 -10 10 -10 5 0 69 -37 142 -83 73 -46 176 -109 228 -141 52 -31
135 -82 183 -112 48 -29 92 -54 97 -54 4 0 10 -4 12 -8 2 -5 30 -24 63 -44 33
-19 121 -72 195 -118 253 -155 400 -245 418 -255 10 -5 52 -31 94 -58 42 -26
81 -47 87 -47 6 0 11 -4 11 -8 0 -5 20 -19 45 -32 25 -13 50 -29 56 -37 6 -7
15 -13 20 -13 7 0 171 -99 194 -117 6 -5 31 -19 58 -33 26 -14 47 -28 47 -32
0 -5 5 -8 11 -8 6 0 34 -15 62 -34 29 -18 140 -87 247 -152 107 -65 197 -122
198 -126 2 -4 7 -8 12 -8 5 0 58 -30 120 -67 228 -139 252 -153 261 -153 5 0
9 -4 9 -8 0 -5 12 -15 28 -23 15 -7 46 -26 69 -41 23 -15 46 -28 52 -28 6 0
11 -4 11 -9 0 -5 8 -12 18 -15 21 -8 67 -34 107 -61 48 -32 69 -45 85 -52 8
-4 17 -10 20 -13 3 -4 23 -17 45 -29 22 -12 71 -41 108 -64 37 -23 127 -78
200 -122 73 -44 140 -87 150 -95 10 -8 21 -15 25 -15 4 0 18 -8 32 -17 107
-68 223 -138 231 -138 5 0 9 -4 9 -8 0 -4 19 -18 43 -30 23 -12 82 -47 131
-77 49 -30 92 -55 97 -55 6 0 97 143 194 304 30 51 238 392 257 423 46 74 50
85 36 94 -20 13 -550 339 -573 352 -11 7 -38 23 -60 37 -22 14 -49 30 -60 37
-11 6 -65 39 -120 73 -55 33 -158 96 -230 140 -71 43 -135 84 -142 89 -7 6
-14 11 -17 11 -2 0 -77 45 -166 100 -89 55 -166 100 -171 100 -5 0 -9 5 -9 10
0 6 -5 10 -10 10 -6 0 -34 16 -63 35 -28 19 -55 35 -60 35 -4 0 -13 5 -20 10
-25 21 -88 60 -97 60 -6 0 -10 5 -10 10 0 6 -5 10 -11 10 -6 0 -34 15 -62 33
-29 19 -128 80 -222 137 -93 56 -186 112 -205 125 -126 80 -302 185 -309 185
-5 0 -11 3 -13 8 -1 4 -37 27 -78 52 -64 38 -241 146 -306 187 -10 7 -44 27
-74 45 -30 17 -56 35 -58 40 -2 4 -7 8 -12 8 -5 0 -81 45 -170 100 -89 55
-166 100 -171 100 -6 0 -8 4 -5 9 4 6 333 210 504 312 15 9 76 46 135 83 60
36 113 66 118 66 5 0 9 3 9 8 0 4 26 22 58 40 31 18 69 41 84 50 30 19 263
161 290 177 10 5 72 44 138 85 200 124 182 116 200 90 8 -13 27 -44 41 -69 15
-25 77 -129 138 -230 61 -101 111 -185 111 -187 0 -2 27 -47 60 -101 33 -54
64 -105 69 -113 5 -8 37 -61 71 -117 l61 -103 55 35 c30 19 59 35 64 35 6 0
10 4 10 9 0 5 8 12 18 15 19 7 16 5 162 96 58 36 117 72 131 80 161 93 369
226 369 236 0 12 -64 123 -130 228 -8 13 -28 47 -45 75 -16 28 -33 51 -37 51
-5 0 -8 4 -8 10 0 8 -158 271 -178 295 -7 9 -53 85 -87 145 -6 10 -23 35 -37
56 -52 76 -73 58 372 328 58 35 166 100 240 146 196 120 191 118 235 141 22
12 42 25 45 28 3 4 50 34 105 66 55 33 102 63 103 68 2 4 10 7 17 7 25 0 27
20 3 58 -34 55 -46 75 -54 92 -4 8 -11 17 -14 20 -4 3 -17 23 -29 45 -12 22
-46 79 -75 127 -30 48 -78 127 -107 175 -30 48 -56 90 -60 93 -3 3 -8 12 -12
20 -4 8 -20 38 -37 65 -17 28 -40 69 -52 93 -12 23 -29 42 -37 42 -9 -1 -58
-28 -110 -60z"/>
</g>
</svg>
